<?xml version="1.0" encoding="utf-8"?>
<!-- Generator: Adobe Illustrator 27.3.1, SVG Export Plug-In . SVG Version: 6.00 Build 0)  -->
<svg version="1.1" id="Layer_1" xmlns="http://www.w3.org/2000/svg" xmlns:xlink="http://www.w3.org/1999/xlink" x="0px" y="0px"
	 viewBox="0 0 153 36" style="enable-background:new 0 0 153 36;" xml:space="preserve">
<style type="text/css">
	.st0{fill:#FFFFFF;}
</style>
<g>
	<path class="st0" d="M32.6,4.2c4.3,0,6.7,2.4,6.7,7v0.5c0,3.1-0.9,4.9-3.1,5.6v0.1c2.6,0.8,3.7,2.8,3.7,6.5v0.9c0,4.5-2.4,7-6.9,7
		h-6.2V4.2H32.6z M31,15.6h1.3c2,0,2.8-1,2.8-3.4v-0.9c0-2.2-0.8-3.3-2.6-3.3H31V15.6z M31,27.9h1.8c2,0,2.9-1.1,2.9-3.4V23
		c0-2.4-0.9-3.6-3.1-3.6H31V27.9z"/>
	<polygon class="st0" points="47.4,8.1 47.4,15.9 53.5,15.9 53.5,19.7 47.4,19.7 47.4,27.9 55,27.9 55,31.8 43.2,31.8 43.2,4.2 
		55,4.2 55,8.1 	"/>
	<polygon class="st0" points="68,31.8 62.6,13.5 62.5,13.5 62.5,31.8 58.5,31.8 58.5,4.2 63.2,4.2 68.1,20.6 68.2,20.6 68.2,4.2 
		72.1,4.2 72.1,31.8 	"/>
	<polygon class="st0" points="80.8,8.1 80.8,15.9 86.9,15.9 86.9,19.7 80.8,19.7 80.8,27.9 88.4,27.9 88.4,31.8 76.6,31.8 76.6,4.2 
		88.4,4.2 88.4,8.1 	"/>
	<polygon class="st0" points="96.1,8.1 96.1,15.9 102.1,15.9 102.1,19.7 96.1,19.7 96.1,31.8 92,31.8 92,4.2 103.5,4.2 103.5,8.1 	
		"/>
	<rect x="106.3" y="4.2" class="st0" width="4.2" height="27.6"/>
	<polygon class="st0" points="121.7,8.1 121.7,31.8 117.6,31.8 117.6,8.1 113.1,8.1 113.1,4.2 126.2,4.2 126.2,8.1 	"/>
</g>
</svg>
